<?xml version="1.0" encoding="utf-8"?>
<!-- Generator: Adobe Illustrator 24.2.3, SVG Export Plug-In . SVG Version: 6.00 Build 0)  -->
<svg version="1.1" id="Warstwa_1" xmlns="http://www.w3.org/2000/svg" xmlns:xlink="http://www.w3.org/1999/xlink" x="0px" y="0px"
	 viewBox="0 0 225 225" style="enable-background:new 0 0 225 225;" xml:space="preserve">
<style type="text/css">
	.st0{fill:#F6DE1E;}
	.st1{fill:#030200;}
	.st2{fill:#050401;}
</style>
<g>
	<path class="st0" d="M0,225C0,150,0,75,0,0c75,0,150,0,225,0c0,75,0,150,0,225C150,225,75,225,0,225z M134.3,185.7
		c3.1,6.6,6.8,11.1,12.8,14.7c13.2,8,27.3,9,41.7,4c11.7-4.1,18-12.6,18.5-25.1c0.5-11.6-3.8-20.8-13.7-27.1c-3.1-2-6.3-3.7-9.6-5.3
		c-4.5-2.2-9.1-3.9-13.6-6.1c-2.4-1.2-4.7-2.6-6.6-4.4c-2.8-2.6-3.5-6-2.3-9.6c1.1-3.5,3.7-5.4,7.3-6c5.4-0.9,9.9,0.4,13.4,4.7
		c1,1.3,2,2.5,3.1,3.8c5.5-3.6,10.7-7,15.9-10.4c-4.2-7.2-9.4-12.5-16.9-14.8c-6.4-2-12.9-2.4-19.7-1.4
		c-16.3,2.5-28.5,17.1-22.8,37.1c2.2,7.5,7,12.9,13.5,16.6c5.4,3.1,11.3,5.5,17,8.3c3.3,1.6,6.6,3.2,9.7,5.1
		c2.3,1.4,3.9,3.6,4.3,6.4c0.8,5.7-2.2,10.1-8.4,11.7c-10,2.7-19.2-1.5-24-8.2c-0.9-1.3-2-2.5-3-3.7
		C145.2,179.3,139.9,182.4,134.3,185.7z M59.3,188.1c3.9,7.5,8.9,12.8,16,16c8.1,3.6,16.4,3.8,24.9,2.1
		c12.1-2.4,19.1-10.2,21.5-22.1c0.7-3.2,0.8-6.6,0.8-9.9c0.1-22.5,0-45,0-67.5c0-1.1-0.2-2.2-0.3-3.2c-7,0-13.8,0-20.8,0
		c0,2,0,3.6,0,5.3c0,21.5,0,43,0,64.5c0,2.5-0.1,5-0.5,7.5c-0.5,3.1-2.2,5.7-5.2,6.8c-4.1,1.5-10.8,1.9-15-3.5c-1.5-2-2.9-4-4.4-6.3
		C70.7,181.2,65.2,184.5,59.3,188.1z"/>
	<path class="st1" d="M134.3,185.7c5.6-3.3,10.9-6.4,16.5-9.6c1,1.2,2,2.4,3,3.7c4.8,6.6,13.9,10.9,24,8.2c6.1-1.7,9.2-6,8.4-11.7
		c-0.4-2.9-2-5-4.3-6.4c-3.1-1.9-6.4-3.5-9.7-5.1c-5.6-2.8-11.5-5.2-17-8.3c-6.5-3.7-11.3-9.1-13.5-16.6c-5.7-20,6.5-34.6,22.8-37.1
		c6.8-1,13.3-0.6,19.7,1.4c7.5,2.4,12.7,7.6,16.9,14.8c-5.2,3.4-10.4,6.8-15.9,10.4c-1.1-1.3-2.1-2.5-3.1-3.8
		c-3.5-4.4-8-5.6-13.4-4.7c-3.6,0.6-6.2,2.6-7.3,6c-1.2,3.6-0.5,7.1,2.3,9.6c1.9,1.8,4.3,3.2,6.6,4.4c4.5,2.2,9.1,4,13.6,6.1
		c3.3,1.6,6.5,3.3,9.6,5.3c9.9,6.3,14.2,15.5,13.7,27.1c-0.5,12.5-6.8,21.1-18.5,25.1c-14.4,5-28.5,4-41.7-4
		C141.1,196.7,137.4,192.3,134.3,185.7z"/>
	<path class="st2" d="M59.3,188.1c5.9-3.6,11.4-6.9,17-10.3c1.6,2.2,2.9,4.3,4.4,6.3c4.2,5.4,10.9,5,15,3.5c3.1-1.1,4.7-3.7,5.2-6.8
		c0.4-2.4,0.5-5,0.5-7.5c0-21.5,0-43,0-64.5c0-1.6,0-3.3,0-5.3c7,0,13.8,0,20.8,0c0.1,1,0.3,2.1,0.3,3.2c0,22.5,0,45,0,67.5
		c0,3.3-0.1,6.7-0.8,9.9c-2.4,11.9-9.3,19.6-21.5,22.1c-8.5,1.7-16.8,1.4-24.9-2.1C68.1,200.9,63.2,195.6,59.3,188.1z"/>
</g>
</svg>
